<svg width="60" height="60" viewBox="0 0 60 60" fill="none" xmlns="http://www.w3.org/2000/svg">
<rect width="60" height="60" rx="10" fill="#005FAA" fill-opacity="0.2"/>
<g clip-path="url(#clip0_995_333)">
<path d="M11.5323 13.4074C10.3049 13.3759 9.1152 13.8349 8.22456 14.6837C7.33393 15.5325 6.81519 16.7016 6.7823 17.9342V34.3969C6.77083 34.4811 6.77934 34.5668 6.80714 34.6471C6.83495 34.7274 6.88126 34.7999 6.9423 34.8588L14.4661 42.3024H13.2098C13.0693 42.3034 12.9349 42.3603 12.8361 42.4607C12.7374 42.5611 12.6823 42.6967 12.6829 42.8378V47.7337C12.7101 48.8752 13.1873 49.9592 14.0097 50.7477C14.8321 51.5362 15.9325 51.9647 17.0692 51.9391H23.5004C24.6371 51.9645 25.7375 51.536 26.5599 50.7476C27.3824 49.9592 27.8598 48.8752 27.8873 47.7337V42.8378C27.888 42.6966 27.8328 42.5609 27.7339 42.4605C27.635 42.3601 27.5004 42.3032 27.3598 42.3024H26.3054V31.7418C26.3061 31.6605 26.2887 31.5801 26.2544 31.5065C26.2201 31.4328 26.1698 31.3678 26.1073 31.3162L19.5042 24.7589C18.6444 23.905 17.4877 23.4204 16.2786 23.4075V17.9342C16.2457 16.7022 15.7274 15.5337 14.8376 14.685C13.9478 13.8364 12.7591 13.3769 11.5323 13.4074ZM48.4698 13.4074C47.2424 13.376 46.0528 13.8351 45.1622 14.6839C44.2716 15.5326 43.7529 16.7016 43.7198 17.9342V23.4075C42.5116 23.421 41.3558 23.9056 40.4967 24.7589L33.8917 31.3169C33.8291 31.3684 33.7788 31.4334 33.7445 31.5071C33.7103 31.5807 33.6928 31.6611 33.6936 31.7424V42.3024H32.6386C32.4979 42.3032 32.3634 42.3601 32.2645 42.4605C32.1656 42.5609 32.1104 42.6966 32.1111 42.8378V47.7337C32.1386 48.8752 32.616 49.9592 33.4384 50.7476C34.2609 51.536 35.3612 51.9645 36.4979 51.9391H42.9286C44.0653 51.9647 45.1656 51.5362 45.988 50.7477C46.8104 49.9592 47.2876 48.8752 47.3148 47.7337V42.8378C47.3155 42.6967 47.2604 42.5611 47.1616 42.4607C47.0628 42.3603 46.9284 42.3034 46.7879 42.3024H45.5286L53.0561 34.8588C53.1172 34.8 53.1635 34.7275 53.1914 34.6472C53.2192 34.5669 53.2276 34.4811 53.2161 34.3969V17.9342C53.1832 16.7016 52.6644 15.5325 51.7738 14.6837C50.8832 13.8349 49.6935 13.3759 48.4661 13.4074H48.4698ZM11.5323 14.4776C12.0012 14.4592 12.4691 14.5342 12.9091 14.6983C13.349 14.8624 13.7522 15.1123 14.0955 15.4336C14.4388 15.7549 14.7154 16.1413 14.9093 16.5705C15.1033 16.9997 15.2107 17.4631 15.2254 17.9342V23.513C14.3574 23.6992 13.5606 24.1311 12.9292 24.7577C12.497 25.1865 12.1539 25.6972 11.9197 26.2603C11.6855 26.8233 11.5649 27.4274 11.5649 28.0376C11.5649 28.6477 11.6855 29.2518 11.9197 29.8149C12.1539 30.3779 12.497 30.8886 12.9292 31.3175L15.3536 33.7246C15.4024 33.7781 15.4617 33.821 15.5277 33.8506C15.5936 33.8803 15.6649 33.8961 15.7372 33.8971C15.8095 33.898 15.8812 33.8842 15.9479 33.8563C16.0147 33.8285 16.0751 33.7873 16.1254 33.7352C16.1757 33.683 16.2149 33.6212 16.2405 33.5533C16.2662 33.4854 16.2777 33.413 16.2745 33.3405C16.2713 33.268 16.2534 33.1969 16.2218 33.1316C16.1903 33.0663 16.1458 33.0082 16.0911 32.9607L13.6679 30.5536C13.3324 30.2271 13.0657 29.8362 12.8835 29.4041C12.7014 28.9721 12.6075 28.5077 12.6075 28.0385C12.6075 27.5693 12.7014 27.1049 12.8835 26.6729C13.0657 26.2408 13.3324 25.8499 13.6679 25.5234C14.3466 24.8494 15.2625 24.4713 16.217 24.4713C17.1715 24.4713 18.0874 24.8494 18.7661 25.5234L25.2511 31.9627V42.3024H15.9792C15.9698 42.2924 15.9598 42.2817 15.9492 42.2717L7.84105 34.2462V17.9336C7.85547 17.4625 7.9626 16.9989 8.15626 16.5695C8.34993 16.1402 8.62629 15.7536 8.96943 15.4321C9.31257 15.1105 9.71569 14.8603 10.1556 14.696C10.5954 14.5316 11.0633 14.4563 11.5323 14.4745V14.4776ZM48.4698 14.4776C48.9387 14.4592 49.4066 14.5342 49.8466 14.6983C50.2865 14.8624 50.6897 15.1123 51.033 15.4336C51.3763 15.7549 51.6529 16.1413 51.8468 16.5705C52.0408 16.9997 52.1482 17.4631 52.1629 17.9342V34.2462L44.0504 42.2723C44.0398 42.2823 44.0298 42.2924 44.0204 42.303H34.7486V31.9627L41.2329 25.5215C41.9116 24.8475 42.8275 24.4694 43.782 24.4694C44.7365 24.4694 45.6524 24.8475 46.3311 25.5215C46.6666 25.848 46.9334 26.2389 47.1156 26.6709C47.2978 27.103 47.3917 27.5674 47.3917 28.0366C47.3917 28.5058 47.2978 28.9703 47.1156 29.4023C46.9334 29.8344 46.6666 30.2252 46.3311 30.5517L43.9079 32.9588C43.8555 33.0069 43.8132 33.0651 43.7836 33.1299C43.754 33.1947 43.7376 33.2648 43.7354 33.336C43.7333 33.4073 43.7454 33.4783 43.771 33.5448C43.7966 33.6113 43.8353 33.6719 43.8847 33.7231C43.9341 33.7743 43.9932 33.815 44.0586 33.8429C44.1239 33.8707 44.1942 33.8851 44.2652 33.8852C44.3362 33.8853 44.4065 33.871 44.4719 33.8434C44.5373 33.8157 44.5965 33.7751 44.6461 33.724L47.0704 31.3169C47.5026 30.888 47.8458 30.3773 48.0799 29.8142C48.3141 29.2512 48.4347 28.6471 48.4347 28.0369C48.4347 27.4268 48.3141 26.8227 48.0799 26.2596C47.8458 25.6966 47.5026 25.1859 47.0704 24.757C46.4388 24.1306 45.6417 23.6989 44.7736 23.513V17.9329C44.7885 17.4621 44.8961 16.9989 45.0901 16.57C45.2841 16.1411 45.5607 15.7549 45.9039 15.4338C46.2471 15.1127 46.6502 14.863 47.0899 14.699C47.5296 14.535 47.9973 14.4599 48.4661 14.4782L48.4698 14.4776ZM25.7786 43.9124C25.8483 43.9123 25.9174 43.9261 25.9818 43.953C26.0461 43.9799 26.1045 44.0195 26.1536 44.0693C26.2527 44.1701 26.3083 44.3061 26.3083 44.4478C26.3083 44.5895 26.2527 44.7255 26.1536 44.8263C26.0922 44.8882 26.0166 44.9339 25.9333 44.9593C25.8501 44.9846 25.762 44.9889 25.6767 44.9717C25.5915 44.9544 25.5118 44.9163 25.4448 44.8606C25.3778 44.8049 25.3257 44.7333 25.2929 44.6524C25.253 44.5547 25.2426 44.4473 25.2629 44.3436C25.2832 44.24 25.3334 44.1446 25.4073 44.0693C25.4559 44.0199 25.5136 43.9806 25.5773 43.9537C25.6411 43.9268 25.7094 43.9127 25.7786 43.9124ZM34.2229 43.9124C34.2927 43.9123 34.3618 43.9261 34.4261 43.953C34.4905 43.9799 34.5489 44.0195 34.5979 44.0693C34.6971 44.1701 34.7527 44.3061 34.7527 44.4478C34.7527 44.5895 34.6971 44.7255 34.5979 44.8263C34.5492 44.8759 34.4911 44.9153 34.427 44.9422C34.363 44.9691 34.2942 44.9829 34.2248 44.9829C34.1554 44.9829 34.0867 44.9691 34.0226 44.9422C33.9586 44.9153 33.9005 44.8759 33.8517 44.8263C33.7527 44.7254 33.6972 44.5895 33.6972 44.4478C33.6972 44.3062 33.7527 44.1702 33.8517 44.0693C33.9007 44.0195 33.9591 43.9799 34.0235 43.953C34.0879 43.9261 34.1569 43.9123 34.2267 43.9124H34.2229Z" fill="#005FAA" stroke="#005FAA" stroke-width="0.8"/>
<path d="M25.9574 16.04H26.9549C27.0699 15.43 27.2524 14.88 27.5024 14.39C27.7524 13.895 28.0574 13.475 28.4174 13.13C28.7774 12.785 29.1849 12.52 29.6399 12.335C30.0949 12.145 30.5899 12.05 31.1249 12.05C31.8199 12.05 32.4149 12.185 32.9099 12.455C33.4049 12.72 33.8199 13.08 34.1549 13.535L33.5024 14.24C33.4524 14.295 33.3999 14.345 33.3449 14.39C33.2899 14.43 33.2124 14.45 33.1124 14.45C33.0424 14.45 32.9774 14.43 32.9174 14.39C32.8624 14.35 32.7999 14.3 32.7299 14.24C32.6599 14.18 32.5824 14.115 32.4974 14.045C32.4124 13.975 32.3099 13.91 32.1899 13.85C32.0749 13.79 31.9374 13.74 31.7774 13.7C31.6174 13.66 31.4274 13.64 31.2074 13.64C30.6174 13.64 30.1199 13.8425 29.7149 14.2475C29.3099 14.6525 29.0274 15.25 28.8674 16.04H32.6324V16.61C32.6324 16.725 32.5849 16.8325 32.4899 16.9325C32.3999 17.0275 32.2749 17.075 32.1149 17.075H28.7399C28.7349 17.16 28.7324 17.245 28.7324 17.33C28.7324 17.41 28.7324 17.4925 28.7324 17.5775C28.7324 17.6375 28.7324 17.6975 28.7324 17.7575C28.7324 17.8175 28.7349 17.875 28.7399 17.93H31.9199V18.4925C31.9199 18.6075 31.8724 18.715 31.7774 18.815C31.6824 18.91 31.5574 18.9575 31.4024 18.9575H28.8299C28.9699 19.8175 29.2374 20.46 29.6324 20.885C30.0324 21.305 30.5274 21.515 31.1174 21.515C31.4774 21.515 31.7649 21.4675 31.9799 21.3725C32.1999 21.2725 32.3774 21.1625 32.5124 21.0425C32.6524 20.9225 32.7674 20.815 32.8574 20.72C32.9524 20.62 33.0549 20.57 33.1649 20.57C33.2199 20.57 33.2674 20.58 33.3074 20.6C33.3474 20.615 33.3899 20.6475 33.4349 20.6975L34.2374 21.4325C33.8874 21.9725 33.4424 22.3875 32.9024 22.6775C32.3624 22.9625 31.7349 23.105 31.0199 23.105C30.4299 23.105 29.8999 23.0075 29.4299 22.8125C28.9649 22.6125 28.5599 22.3325 28.2149 21.9725C27.8699 21.6125 27.5874 21.1775 27.3674 20.6675C27.1524 20.1575 26.9999 19.5875 26.9099 18.9575H25.9574V17.93H26.8274C26.8224 17.875 26.8199 17.8175 26.8199 17.7575C26.8199 17.6975 26.8199 17.6375 26.8199 17.5775C26.8199 17.4925 26.8199 17.41 26.8199 17.33C26.8199 17.245 26.8224 17.16 26.8274 17.075H25.9574V16.04Z" fill="#005FAA"/>
</g>
<defs>
<clipPath id="clip0_995_333">
<rect width="50" height="44" fill="white" transform="translate(5 8)"/>
</clipPath>
</defs>
</svg>
